Coordinates
version=1
nRows=32
nColumns=22
inDegrees=yes

Units are S.I. units (second, meters, Newtons, ...)
If the header above contains a line with 'inDegrees', this indicates whether rotational values are in degrees (yes) or radians (no).

endheader
time	pelvis_tilt	pelvis_list	pelvis_rotation	pelvis_tx	pelvis_ty	pelvis_tz	hip_flexion_r	hip_adduction_r	hip_rotation_r	knee_angle_r	ankle_angle_r	subtalar_angle_r	hip_flexion_l	hip_adduction_l	hip_rotation_l	knee_angle_l	ankle_angle_l	subtalar_angle_l	lumbar_extension	lumbar_bending	lumbar_rotation
      0.01000000	     -8.28603756	      1.62088377	    -31.60678838	     -1.46496834	      0.88476439	     -0.56119610	     11.98402020	     -1.36371375	      0.72729486	    -11.84813761	     12.47237261	      0.40387290	     10.82421667	     -7.38114532	     -3.80592979	    -16.95699253	     17.35258289	      3.19621009	      1.41510172	      2.17769520	     13.89540360
      0.02000000	     -8.28864095	      1.63093005	    -31.61777399	     -1.46473765	      0.88474356	     -0.56119991	     11.95841187	     -1.37898317	      0.72627486	    -11.80927848	     12.48921115	      0.40328372	     10.81647742	     -7.36267977	     -3.81297115	    -16.95975584	     17.39343988	      3.20497183	      1.43610122	      2.16794611	     13.90215094
      0.03000000	     -8.28466500	      1.63370013	    -31.62635058	     -1.46446171	      0.88472585	     -0.56120049	     11.91034968	     -1.39360924	      0.74058639	    -11.75375763	     12.49836643	      0.40565420	     10.80613766	     -7.34828866	     -3.82815327	    -16.98340009	     17.47136500	      3.22576021	      1.44977207	      2.16007791	     13.90404071
      0.04000000	     -8.28358362	      1.63090588	    -31.64232356	     -1.46417731	      0.88470554	     -0.56120146	     11.85972235	     -1.40018602	      0.75213889	    -11.69203322	     12.50626939	      0.40999013	     10.80258989	     -7.33903029	     -3.83958195	    -17.02550644	     17.56091531	      3.24988043	      1.45956471	      2.16029701	     13.90918266
      0.05000000	     -8.28793007	      1.59974525	    -31.66602827	     -1.46390070	      0.88468592	     -0.56117974	     11.79696173	     -1.37533624	      0.77769761	    -11.62835885	     12.49746402	      0.42194810	     10.80108558	     -7.36486546	     -3.86355762	    -17.09489883	     17.68676490	      3.30540685	      1.45378716	      2.19114454	     13.89729970
      0.06000000	     -8.29539886	      1.58944575	    -31.68599626	     -1.46361186	      0.88463099	     -0.56118420	     11.75362781	     -1.37079334	      0.79998514	    -11.57366913	     12.51219033	      0.42897323	     10.82499050	     -7.36697152	     -3.86237059	    -17.18477980	     17.81096457	      3.33625958	      1.46220197	      2.20330113	     13.89724964
      0.07000000	     -8.31081959	      1.56951727	    -31.71307790	     -1.46333226	      0.88455226	     -0.56117424	     11.72054929	     -1.35210251	      0.83130088	    -11.53370476	     12.53409593	      0.43671803	     10.86524462	     -7.38495054	     -3.86071456	    -17.30646991	     17.96244353	      3.35353471	      1.46852636	      2.22883004	     13.89540719
      0.08000000	     -8.33443666	      1.54320502	    -31.74621235	     -1.46306793	      0.88444545	     -0.56114998	     11.70158688	     -1.32027014	      0.87239785	    -11.51356226	     12.56452840	      0.44470151	     10.92376740	     -7.41466255	     -3.85454349	    -17.45673543	     18.13191163	      3.35414734	      1.47423087	      2.26344684	     13.89740248
      0.09000000	     -8.36410595	      1.51427637	    -31.78654195	     -1.46281355	      0.88431124	     -0.56111136	     11.69950836	     -1.28090664	      0.92342444	    -11.51819792	     12.60705613	      0.45258796	     10.99671997	     -7.45127820	     -3.84147291	    -17.63005766	     18.31298914	      3.33373660	      1.47913576	      2.30317761	     13.90597890
      0.10000000	     -8.42232142	      1.48283012	    -31.83367202	     -1.46257286	      0.88412406	     -0.56105778	     11.74058511	     -1.22080547	      0.97456781	    -11.55801553	     12.64998326	      0.46295282	     11.10875079	     -7.50827606	     -3.82880667	    -17.83252433	     18.49608484	      3.26977295	      1.50730459	      2.36133459	     13.93819201
      0.11000000	     -8.44172989	      1.46191537	    -31.88333306	     -1.46227770	      0.88396438	     -0.56098012	     11.75016745	     -1.19232070	      1.05156801	    -11.60523751	     12.73406178	      0.47086322	     11.17077381	     -7.52924637	     -3.80248155	    -18.00592434	     18.69484187	      3.21781149	      1.50297855	      2.38575557	     13.94326499
      0.12000000	     -8.47258878	      1.43460814	    -31.94388446	     -1.46196167	      0.88378304	     -0.56087308	     11.77984081	     -1.14885551	      1.13288506	    -11.68237258	     12.82488975	      0.48323565	     11.24017941	     -7.56492879	     -3.78605401	    -18.18953547	     18.89689437	      3.14000223	      1.50512983	      2.42372636	     13.97364770
      0.13000000	     -8.52764711	      1.42181540	    -32.01735867	     -1.46162048	      0.88355747	     -0.56072679	     11.85094503	     -1.10169705	      1.21753525	    -11.78406555	     12.91244004	      0.50897072	     11.33868941	     -7.60408387	     -3.78904914	    -18.38244649	     19.07889611	      2.98109110	      1.54241699	      2.45997933	     14.04075008
      0.14000000	     -8.53030444	      1.40743950	    -32.08251006	     -1.46113365	      0.88340962	     -0.56054061	     11.84624275	     -1.08589327	      1.31422831	    -11.85792725	     13.03676207	      0.52652521	     11.34548388	     -7.60613195	     -3.76898472	    -18.51029834	     19.28357407	      2.90718731	      1.53863423	      2.46794349	     14.06273324
      0.15000000	     -8.53293158	      1.39258892	    -32.16302171	     -1.46058752	      0.88326792	     -0.56030911	     11.84237929	     -1.06784655	      1.41548158	    -11.94134283	     13.16961142	      0.55539898	     11.34042294	     -7.61250540	     -3.78320474	    -18.63335708	     19.48663276	      2.81248437	      1.53930881	      2.47693700	     14.11333020
      0.16000000	     -8.52920462	      1.38733749	    -32.26078619	     -1.45998957	      0.88314396	     -0.56003050	     11.84025548	     -1.06004094	      1.52822871	    -12.03240103	     13.30346265	      0.62263933	     11.31823735	     -7.60969197	     -3.83257493	    -18.74342123	     19.66225931	      2.64461827	      1.54549453	      2.47060932	     14.20689878
      0.17000000	     -8.51748304	      1.38417457	    -32.33824112	     -1.45927705	      0.88304111	     -0.55972712	     11.80467557	     -1.06443292	      1.61988757	    -12.09122052	     13.46055081	      0.68109651	     11.25865485	     -7.59323441	     -3.86158595	    -18.79858050	     19.86118826	      2.54448062	      1.55788202	      2.45505696	     14.25465940
      0.18000000	     -8.50105157	      1.38666651	    -32.42368050	     -1.45850444	      0.88295822	     -0.55941595	     11.76840930	     -1.07915918	      1.72055995	    -12.15427027	     13.62056564	      0.76354343	     11.17805109	     -7.56756504	     -3.91351881	    -18.83123091	     20.04088791	      2.43624675	      1.57142566	      2.43555613	     14.32137338
      0.19000000	     -8.48155051	      1.40288656	    -32.51353964	     -1.45766844	      0.88288830	     -0.55907988	     11.72651841	     -1.11083563	      1.82027702	    -12.20324493	     13.78376623	      0.90937764	     11.07829896	     -7.52468008	     -3.97025746	    -18.82999897	     20.18825852	      2.28540115	      1.59526545	      2.39777254	     14.43015300
      0.20000000	     -8.47279822	      1.42192949	    -32.59320234	     -1.45675965	      0.88281007	     -0.55871836	     11.68952100	     -1.14201708	      1.90173104	    -12.25276701	     13.95105503	      1.04605247	     10.97349161	     -7.48417097	     -4.03219618	    -18.80404281	     20.33926550	      2.17296830	      1.63637956	      2.36088916	     14.50450958
      0.21000000	     -8.47527526	      1.44119639	    -32.65663625	     -1.45579743	      0.88271646	     -0.55838733	     11.65536373	     -1.17250346	      1.98600036	    -12.29493930	     14.11234466	      1.13564823	     10.88111328	     -7.44342115	     -4.05417143	    -18.78449195	     20.49711250	      2.11294024	      1.68421247	      2.33203602	     14.57030988
      0.22000000	     -8.48361751	      1.47267526	    -32.72770061	     -1.45475300	      0.88261456	     -0.55801762	     11.62707363	     -1.21247012	      2.05907908	    -12.33459834	     14.27939676	      1.24969259	     10.77777515	     -7.39638346	     -4.10804122	    -18.73458455	     20.63203215	      2.04313054	      1.74913570	      2.29357737	     14.65136119
      0.23000000	     -8.49765895	      1.51048244	    -32.79275306	     -1.45364163	      0.88250050	     -0.55765161	     11.60254468	     -1.25913342	      2.12331307	    -12.37135108	     14.43629465	      1.38477208	     10.67778271	     -7.34400551	     -4.16027437	    -18.68052916	     20.75133671	      1.96770378	      1.82071961	      2.25332679	     14.72263196
      0.24000000	     -8.52565619	      1.54886460	    -32.84342434	     -1.45245416	      0.88236874	     -0.55731315	     11.57775662	     -1.30375023	      2.17131018	    -12.39320197	     14.57695495	      1.52067011	     10.59050249	     -7.29292665	     -4.19760360	    -18.62461277	     20.86347215	      1.89748393	      1.90163921	      2.22443721	     14.77390411
      0.25000000	     -8.55805841	      1.59635656	    -32.89395320	     -1.45120110	      0.88222347	     -0.55695738	     11.56224727	     -1.35723278	      2.20284126	    -12.42166991	     14.70551032	      1.75351353	     10.50356291	     -7.23786186	     -4.26288012	    -18.56058494	     20.94926989	      1.78142489	      1.98861345	      2.18980480	     14.80734773
      0.26000000	     -8.62036566	      1.62436626	    -32.91155680	     -1.44987267	      0.88204932	     -0.55664307	     11.52079015	     -1.38140383	      2.22554184	    -12.38378996	     14.81171836	      1.81213275	     10.44626764	     -7.20774777	     -4.24786552	    -18.51669878	     21.07480537	      1.75811075	      2.08616282	      2.19219527	     14.82362327
      0.27000000	     -8.68535571	      1.65888036	    -32.93057883	     -1.44847832	      0.88185897	     -0.55632042	     11.48294067	     -1.41171791	      2.24537018	    -12.34940417	     14.92624595	      1.89257574	     10.39131205	     -7.17325437	     -4.25862013	    -18.47503506	     21.20088905	      1.72544381	      2.18557631	      2.19116885	     14.83944739
      0.28000000	     -8.76044499	      1.70155128	    -32.95514626	     -1.44703653	      0.88164933	     -0.55599350	     11.46358600	     -1.44597538	      2.25309780	    -12.32976555	     15.03146333	      2.11181895	     10.35056738	     -7.13680777	     -4.29313188	    -18.44048912	     21.31312563	      1.63461020	      2.29151267	      2.18998545	     14.84899917
      0.29000000	     -8.84229923	      1.73385733	    -32.95459396	     -1.44550081	      0.88144312	     -0.55569544	     11.40939567	     -1.47243277	      2.27198692	    -12.25952357	     15.12058631	      2.15802251	     10.31290486	     -7.10461784	     -4.27788483	    -18.41030927	     21.42993302	      1.61813587	      2.39315039	      2.20282917	     14.85776516
      0.30000000	     -8.93958489	      1.77127742	    -32.95912194	     -1.44390879	      0.88120482	     -0.55538133	     11.38447400	     -1.49757476	      2.26889593	    -12.22102470	     15.21889633	      2.36831600	     10.29890238	     -7.07742682	     -4.28759960	    -18.40285657	     21.56299013	      1.51600305	      2.50776229	      2.22001366	     14.86386056
      0.31000000	     -9.02362341	      1.80672636	    -32.95441294	     -1.44223039	      0.88098911	     -0.55507563	     11.32493300	     -1.53105608	      2.29316949	    -12.15496690	     15.31521170	      2.40862147	     10.26544478	     -7.03730231	     -4.27079505	    -18.38514181	     21.68705985	      1.49218603	      2.60233605	      2.23074699	     14.87262902
      0.32000000	     -9.11297941	      1.84215778	    -32.95057666	     -1.44048285	      0.88075134	     -0.55476903	     11.27499617	     -1.56473335	      2.30851038	    -12.10594171	     15.42764383	      2.48903240	     10.24262181	     -6.99746281	     -4.25660228	    -18.38689641	     21.83339215	      1.43103982	      2.69561989	      2.24552716	     14.88168420
